# xmcd CD database file
# Copyright (C) 1993-1998 Ti Kan
#
# Track frame offsets:
#	183
#	17645
#	36533
#	50845
#	63145
#	73795
#	86645
#	98670
#	110770
#	122733
#	138833
#	152983
#	165495
#	176508
#	189808
#	200458
#	213358
#	232045
#	243583
#	256108
#	267095
#
# Disc length: 3731 seconds
#
# Revision: 0
# Processed by: cddbd v1.4b41PL1 Copyright (c) Steve Scherf et al.
# Submitted via: CDmax 1.5.3
#
DISCID=280e9115
DTITLE=Howlin' Wolf - Moanin' For My Baby
DYEAR=1900
DGENRE=
TTITLE0=Crying At Daybreak
TTITLE1=House Rockin' Boogie
TTITLE2=Riding In The Moonlight
TTITLE3=Dog Me Around
TTITLE4=Keep What You Got
TTITLE5=My Baby Stole Off
TTITLE6=Passing By Blues
TTITLE7=Brownskin Woman
TTITLE8=The Sun Is Rising
TTITLE9=Blue Bird
TTITLE10=You Can't Be Beat
TTITLE11=Nature
TTITLE12=Somebody In My Home
TTITLE13=Tell Me
TTITLE14=Who's Been Talking?
TTITLE15=Walk To Camp Hall
TTITLE16=Poor Boy
TTITLE17=Sittin' On Top Of The World
TTITLE18=Howlin' Blues ("I'm Going Away")
TTITLE19=I Didn't Know
TTITLE20=Moanin' For My Baby
EXTD=
EXTT0=
EXTT1=
EXTT2=
EXTT3=
EXTT4=
EXTT5=
EXTT6=
EXTT7=
EXTT8=
EXTT9=
EXTT10=
EXTT11=
EXTT12=
EXTT13=
EXTT14=
EXTT15=
EXTT16=
EXTT17=
EXTT18=
EXTT19=
EXTT20=
PLAYORDER=
